<svg xmlns="http://www.w3.org/2000/svg" width="92" height="92" viewBox="0 0 92 92"><path d="M51.21 23.088c-10.578 0-17.677 6.158-17.677 18.113v8.519a7.922 7.922 0 013.422-.782c1.24 0 2.412.293 3.46.8v-8.537c0-7.753 4.275-11.737 10.795-11.737S62.006 33.449 62.006 41.2v18.62h6.882V41.2c0-12.027-7.1-18.113-17.678-18.113z"/><path d="M36.682 51.09c-1.33 0-2.554.448-3.54 1.194l-6.482-4.428c.143-.508.225-1.04.225-1.594 0-3.248-2.643-5.891-5.891-5.891s-5.892 2.643-5.892 5.891a5.898 5.898 0 005.892 5.892 5.85 5.85 0 003.54-1.194l6.481 4.428c-.143.508-.225 1.04-.225 1.594s.082 1.085.225 1.593l-6.48 4.428a5.853 5.853 0 00-3.541-1.194c-3.249 0-5.892 2.643-5.892 5.892s2.643 5.891 5.892 5.891 5.891-2.642 5.891-5.891c0-.553-.082-1.086-.225-1.593l6.481-4.429a5.853 5.853 0 003.54 1.194 5.898 5.898 0 005.892-5.891 5.898 5.898 0 00-5.891-5.892z" fill="#018bff"/></svg>