<svg data-name="Layer 1" xmlns="http://www.w3.org/2000/svg" viewBox="0 0 200 75"><path d="M39.23 19c-10.58 0-17.68 6.16-17.68 18.11v8.52a8 8 0 013.45-.82 7.89 7.89 0 013.46.8v-8.54c0-7.75 4.28-11.73 10.8-11.73S50 29.32 50 37.07v18.62h6.89V37.07C56.91 25.05 49.81 19 39.23 19zm21.43 18.8c0-10.87 8-18.84 19.27-18.84s19.13 8 19.13 18.84v2.53H67.9c1 6.38 5.8 9.93 12 9.93 4.64 0 7.9-1.45 10-4.56h7.6c-2.75 6.66-9.27 10.94-17.6 10.94-11.27 0-19.24-7.97-19.24-18.84zm31.15-3.62c-1.38-5.73-6.08-8.84-11.88-8.84s-10.43 3.19-11.81 8.84zm10.93 3.62c0-10.86 8-18.83 19.27-18.83s19.27 8 19.27 18.83-8 18.84-19.27 18.84-19.27-7.97-19.27-18.84zm31.59 0c0-7.24-4.93-12.46-12.32-12.46S109.7 30.56 109.7 37.8s4.92 12.46 12.3 12.46 12.33-5.21 12.33-12.46zm46.31 25.02h.8c4.42 0 6.08-2 6.08-7V20.16h6.89v35.2c0 8.84-3.48 13.4-12.32 13.4h-1.45zm-3.44-3.68h-6.89v-8.49h-17.45A8.64 8.64 0 01145 46.2a7.72 7.72 0 01.94-8.16l15.66-20.55a8.65 8.65 0 0115.6 5.13v21.92h5.17v6.11h-5.17zM151.67 41.8a1.76 1.76 0 00-.32 1 1.72 1.72 0 001.73 1.73h17.23V22.45a1.7 1.7 0 00-1.19-1.68 2.36 2.36 0 00-.63-.09 1.63 1.63 0 00-1.36.73L151.67 41.8zM191 5.53a5.9 5.9 0 105.89 5.9 5.9 5.9 0 00-5.89-5.9z" fill="#fff"/><path d="M24.7 47a5.84 5.84 0 00-3.54 1.2l-6.48-4.43a6 6 0 00.22-1.59A5.89 5.89 0 109 48a5.81 5.81 0 003.54-1.2L19 51.26a5.89 5.89 0 000 3.19l-6.48 4.43A5.81 5.81 0 009 57.68a5.9 5.9 0 105.89 5.89 6 6 0 00-.21-1.57l6.48-4.43a5.84 5.84 0 003.54 1.2 5.9 5.9 0 000-11.77z" fill="#fff"/></svg>